<svg width="36" height="26" viewBox="0 0 36 26" fill="none" xmlns="http://www.w3.org/2000/svg">
<path d="M16.2932 0.283868C17.3241 -0.0868102 18.6737 -0.0868102 19.7046 0.283868L21.3728 0.877969C21.9351 1.076 22.5911 1.17248 23.2565 1.15217L25.2528 1.08616C26.4899 1.04554 27.652 1.41114 28.2049 2.01032L29.1046 2.98017C29.4045 3.30515 29.8919 3.56412 30.4823 3.72661L32.2911 4.21915C33.3969 4.51874 34.0717 5.14839 33.9968 5.81866L33.8749 6.90023C33.8374 7.26075 34.0155 7.62127 34.381 7.92086L35.4869 8.82471C36.171 9.38326 36.171 10.1145 35.4869 10.673L34.381 11.5819C34.0155 11.8866 33.8374 12.2421 33.8749 12.6026L33.9968 13.6841C34.0717 14.3544 33.3969 14.9841 32.2911 15.2837L30.501 15.7711C29.9012 15.9336 29.4233 16.1977 29.1234 16.5176L28.2143 17.4976C27.6613 18.0967 26.4992 18.4623 25.2621 18.4217L23.2659 18.3557C22.6005 18.3354 21.9351 18.4319 21.3822 18.6299L19.714 19.2291C18.6831 19.5998 17.3335 19.5998 16.3026 19.2291L14.625 18.6299C14.0627 18.4319 13.4067 18.3354 12.7413 18.3557L10.7451 18.4217C9.50796 18.4623 8.34584 18.0967 7.7929 17.4976L6.8932 16.5277C6.5933 16.2027 6.10596 15.9438 5.51553 15.7813L3.70675 15.2887C2.60087 14.9891 1.92609 14.3595 2.00106 13.6892L2.1229 12.6077C2.16039 12.2471 1.98232 11.8866 1.61682 11.587L0.520302 10.6781C-0.163847 10.1195 -0.163847 9.38834 0.520302 8.82978L1.61682 7.92594C1.98232 7.62127 2.16039 7.26583 2.1229 6.9053L2.00106 5.82373C1.92609 5.15347 2.60087 4.52382 3.70675 4.22423L5.49678 3.73676C6.09659 3.5692 6.58393 3.30515 6.88383 2.98017L7.78353 2.01032C8.33647 1.41114 9.49859 1.04554 10.7357 1.08616L12.7319 1.15217C13.3973 1.17248 14.0627 1.076 14.6156 0.877969L16.2932 0.283868ZM25.4964 9.75394C25.4964 8.67657 24.7065 7.64333 23.3005 6.88151C21.8944 6.1197 19.9874 5.69171 17.9989 5.69171C16.0104 5.69171 14.1034 6.1197 12.6974 6.88151C11.2913 7.64333 10.5014 8.67657 10.5014 9.75394C10.5014 10.8313 11.2913 11.8646 12.6974 12.6264C14.1034 13.3882 16.0104 13.8162 17.9989 13.8162C19.9874 13.8162 21.8944 13.3882 23.3005 12.6264C24.7065 11.8646 25.4964 10.8313 25.4964 9.75394ZM0.126682 22.4383L4.16597 17.2335C4.18472 17.2386 4.19409 17.2437 4.20346 17.2538L5.10316 18.2237C6.19968 19.4017 8.47705 20.1177 10.9137 20.0415L12.91 19.9755C12.9287 19.9755 12.9568 19.9755 12.9756 19.9857L14.6438 20.5849C15.1217 20.7524 15.6278 20.8845 16.1526 20.9759L12.6288 25.5103C12.4133 25.7896 11.9353 25.9775 11.3823 26.0029C10.8294 26.0282 10.2952 25.8911 9.9953 25.6373L6.97755 23.1339L1.71991 23.5554C1.18571 23.596 0.651509 23.4792 0.31412 23.2507C-0.0232682 23.0222 -0.0888715 22.7074 0.11731 22.4383H0.126682ZM23.369 25.5052L19.8452 20.9759C20.37 20.8845 20.8761 20.7575 21.3541 20.5849L23.0223 19.9857C23.041 19.9806 23.0597 19.9755 23.0879 19.9755L25.0841 20.0415C27.5208 20.1177 29.7981 19.4017 30.8947 18.2237L31.7944 17.2538C31.8037 17.2437 31.8131 17.2386 31.8318 17.2335L35.8805 22.4383C36.0867 22.7074 36.0117 23.0171 35.6837 23.2507C35.3557 23.4843 34.8121 23.6011 34.2779 23.5554L29.0203 23.1339L26.0025 25.6322C25.7026 25.8861 25.1684 26.0232 24.6155 25.9978C24.0625 25.9724 23.5846 25.7794 23.369 25.5052Z" fill="#003350"/>
</svg>
