<svg width="33" height="27" viewBox="0 0 33 27" fill="none" xmlns="http://www.w3.org/2000/svg">
<path d="M28.4313 0.846705C30.6535 0.840356 32.4625 1.9303 32.4699 3.28007L32.5869 24.4689C32.5944 25.8186 30.7975 26.9189 28.5753 26.9252L20.5251 26.9482L20.5026 22.8735C20.4952 21.5237 18.6862 20.4338 16.464 20.4401C14.2418 20.4465 12.445 21.5467 12.4524 22.8965L12.4749 26.9712L4.42472 26.9942C2.20253 27.0006 0.393579 25.9106 0.386126 24.5609L0.269127 3.37207C0.261674 2.0223 2.05854 0.922052 4.28073 0.915703L28.4313 0.846705ZM27.1571 13.0749C27.1546 12.6266 26.5489 12.2616 25.8109 12.2637L23.1275 12.2714C22.3896 12.2735 21.7878 12.642 21.7903 13.0902L21.7993 14.7201C21.8018 15.1683 22.4076 15.5333 23.1455 15.5312L25.8289 15.5235C26.5669 15.5214 27.1686 15.153 27.1661 14.7048L27.1571 13.0749ZM17.7607 12.2867L15.0773 12.2944C14.3394 12.2965 13.7376 12.665 13.7401 13.1132L13.7491 14.7431C13.7516 15.1913 14.3574 15.5563 15.0953 15.5542L17.7787 15.5465C18.5167 15.5444 19.1184 15.176 19.1159 14.7278L19.1069 13.0979C19.1044 12.6496 18.4987 12.2846 17.7607 12.2867ZM11.0567 13.1209C11.0542 12.6726 10.4485 12.3076 9.71052 12.3097L7.02712 12.3174C6.28919 12.3195 5.68745 12.688 5.68992 13.1362L5.69892 14.7661C5.7014 15.2143 6.30719 15.5793 7.04512 15.5772L9.72852 15.5695C10.4665 15.5674 11.0682 15.199 11.0657 14.7508L11.0567 13.1209ZM25.7749 5.7441L23.0915 5.75176C22.3536 5.75387 21.7518 6.12233 21.7543 6.57055L21.7633 8.20046C21.7658 8.64868 22.3716 9.01369 23.1095 9.01158L25.7929 9.00391C26.5309 9.00181 27.1326 8.63335 27.1301 8.18513L27.1211 6.55522C27.1186 6.10699 26.5129 5.74199 25.7749 5.7441ZM19.0709 6.57822C19.0684 6.12999 18.4627 5.76499 17.7247 5.7671L15.0413 5.77476C14.3034 5.77687 13.7016 6.14533 13.7041 6.59355L13.7131 8.22346C13.7156 8.67168 14.3214 9.03669 15.0593 9.03458L17.7427 9.02691C18.4807 9.0248 19.0824 8.65635 19.0799 8.20813L19.0709 6.57822ZM9.67452 5.7901L6.99112 5.79776C6.25319 5.79987 5.65145 6.16832 5.65392 6.61655L5.66292 8.24646C5.6654 8.69468 6.27119 9.05969 7.00912 9.05758L9.69252 9.04991C10.4305 9.0478 11.0322 8.67935 11.0297 8.23113L11.0207 6.60122C11.0182 6.15299 10.4125 5.78799 9.67452 5.7901Z" fill="#003350"/>
</svg>
