<svg width="27" height="22" viewBox="0 0 27 22" fill="none" xmlns="http://www.w3.org/2000/svg">
<path d="M2.24941 0.00585938C1.00521 0.00585938 0 0.620312 0 1.38086C0 2.14141 1.00521 2.75586 2.24941 2.75586V3.22852C2.24941 5.05039 3.43739 6.79922 5.54621 8.08828L10.3122 11.0059L5.54621 13.9234C3.43739 15.2125 2.24941 16.9613 2.24941 18.7832V19.2559C1.00521 19.2559 0 19.8703 0 20.6309C0 21.3914 1.00521 22.0059 2.24941 22.0059H4.49883H22.4941H24.7436C25.9878 22.0059 26.993 21.3914 26.993 20.6309C26.993 19.8703 25.9878 19.2559 24.7436 19.2559V18.7832C24.7436 16.9613 23.5556 15.2125 21.4468 13.9234L16.6808 11.0059L21.4538 8.08828C23.5626 6.79922 24.7506 5.05039 24.7506 3.22852V2.75586C25.9948 2.75586 27 2.14141 27 1.38086C27 0.620312 25.9948 0.00585938 24.7506 0.00585938H22.4941H4.49883H2.24941ZM6.74824 3.22852V2.75586H20.2447V3.22852C20.2447 4.04492 19.8511 4.83555 19.12 5.50586H7.87295C7.14892 4.83555 6.74824 4.04492 6.74824 3.22852ZM7.87295 16.5059C8.11898 16.2781 8.40719 16.0633 8.72351 15.8656L13.4965 12.9523L18.2695 15.8699C18.5928 16.0676 18.874 16.2824 19.12 16.5102H7.87295V16.5059Z" fill="#003350"/>
</svg>
