<svg width="25" height="28" viewBox="0 0 25 28" fill="none" xmlns="http://www.w3.org/2000/svg">
<path d="M19.6884 12.1548C19.6884 14.3956 19.019 16.4657 17.8915 18.1451L23.5788 24.3307C24.1404 24.941 24.1404 25.932 23.5788 26.5423C23.0173 27.1526 22.1053 27.1526 21.5438 26.5423L15.8564 20.3567C14.311 21.587 12.4062 22.3095 10.3442 22.3095C5.18243 22.3095 1 17.7643 1 12.1548C1 6.54523 5.18243 2 10.3442 2C15.506 2 19.6884 6.54523 19.6884 12.1548ZM10.3442 19.185C11.1937 19.185 12.0349 19.0031 12.8198 18.6498C13.6047 18.2965 14.3178 17.7787 14.9185 17.1259C15.5192 16.4731 15.9957 15.6981 16.3208 14.8451C16.6459 13.9922 16.8133 13.078 16.8133 12.1548C16.8133 11.2315 16.6459 10.3174 16.3208 9.46441C15.9957 8.61147 15.5192 7.83646 14.9185 7.18365C14.3178 6.53083 13.6047 6.01299 12.8198 5.65969C12.0349 5.30638 11.1937 5.12454 10.3442 5.12454C9.49468 5.12454 8.65347 5.30638 7.8686 5.65969C7.08374 6.01299 6.37059 6.53083 5.76989 7.18365C5.16918 7.83646 4.69267 8.61147 4.36757 9.46441C4.04247 10.3174 3.87514 11.2315 3.87514 12.1548C3.87514 13.078 4.04247 13.9922 4.36757 14.8451C4.69267 15.6981 5.16918 16.4731 5.76989 17.1259C6.37059 17.7787 7.08374 18.2965 7.8686 18.6498C8.65347 19.0031 9.49468 19.185 10.3442 19.185Z" fill="#003350"/>
</svg>
