<svg width="25" height="25" viewBox="0 0 25 25" fill="none" xmlns="http://www.w3.org/2000/svg">
<g clip-path="url(#clip0_48_125)">
<path d="M0 20.8333C0 21.7552 0.698242 22.5 1.5625 22.5H4.2334C4.83398 23.974 6.21094 25 7.8125 25C9.41406 25 10.791 23.974 11.3916 22.5H23.4375C24.3018 22.5 25 21.7552 25 20.8333C25 19.9115 24.3018 19.1667 23.4375 19.1667H11.3916C10.791 17.6927 9.41406 16.6667 7.8125 16.6667C6.21094 16.6667 4.83398 17.6927 4.2334 19.1667H1.5625C0.698242 19.1667 0 19.9115 0 20.8333ZM6.25 20.8333C6.25 20.3913 6.41462 19.9674 6.70765 19.6548C7.00067 19.3423 7.3981 19.1667 7.8125 19.1667C8.2269 19.1667 8.62433 19.3423 8.91735 19.6548C9.21038 19.9674 9.375 20.3913 9.375 20.8333C9.375 21.2754 9.21038 21.6993 8.91735 22.0118C8.62433 22.3244 8.2269 22.5 7.8125 22.5C7.3981 22.5 7.00067 22.3244 6.70765 22.0118C6.41462 21.6993 6.25 21.2754 6.25 20.8333ZM15.625 12.5C15.625 12.058 15.7896 11.634 16.0826 11.3215C16.3757 11.0089 16.7731 10.8333 17.1875 10.8333C17.6019 10.8333 17.9993 11.0089 18.2924 11.3215C18.5854 11.634 18.75 12.058 18.75 12.5C18.75 12.942 18.5854 13.3659 18.2924 13.6785C17.9993 13.9911 17.6019 14.1667 17.1875 14.1667C16.7731 14.1667 16.3757 13.9911 16.0826 13.6785C15.7896 13.3659 15.625 12.942 15.625 12.5ZM17.1875 8.33333C15.5859 8.33333 14.209 9.35938 13.6084 10.8333H1.5625C0.698242 10.8333 0 11.5781 0 12.5C0 13.4219 0.698242 14.1667 1.5625 14.1667H13.6084C14.209 15.6406 15.5859 16.6667 17.1875 16.6667C18.7891 16.6667 20.166 15.6406 20.7666 14.1667H23.4375C24.3018 14.1667 25 13.4219 25 12.5C25 11.5781 24.3018 10.8333 23.4375 10.8333H20.7666C20.166 9.35938 18.7891 8.33333 17.1875 8.33333ZM9.375 5.83333C8.9606 5.83333 8.56317 5.65774 8.27015 5.34518C7.97712 5.03262 7.8125 4.60869 7.8125 4.16667C7.8125 3.72464 7.97712 3.30072 8.27015 2.98816C8.56317 2.67559 8.9606 2.5 9.375 2.5C9.7894 2.5 10.1868 2.67559 10.4799 2.98816C10.7729 3.30072 10.9375 3.72464 10.9375 4.16667C10.9375 4.60869 10.7729 5.03262 10.4799 5.34518C10.1868 5.65774 9.7894 5.83333 9.375 5.83333ZM12.9541 2.5C12.3535 1.02604 10.9766 0 9.375 0C7.77344 0 6.39648 1.02604 5.7959 2.5H1.5625C0.698242 2.5 0 3.24479 0 4.16667C0 5.08854 0.698242 5.83333 1.5625 5.83333H5.7959C6.39648 7.30729 7.77344 8.33333 9.375 8.33333C10.9766 8.33333 12.3535 7.30729 12.9541 5.83333H23.4375C24.3018 5.83333 25 5.08854 25 4.16667C25 3.24479 24.3018 2.5 23.4375 2.5H12.9541Z" fill="#003350"/>
</g>
<defs>
<clipPath id="clip0_48_125">
<rect width="25" height="25" fill="white"/>
</clipPath>
</defs>
</svg>
